<svg xmlns="http://www.w3.org/2000/svg" version="1.1" xmlns:xlink="http://www.w3.org/1999/xlink" xmlns:svgjs="http://svgjs.dev/svgjs" width="2000" height="2250" viewBox="0 0 2000 2250"><g transform="matrix(1,0,0,1,3.410605131648481e-13,0)"><svg viewBox="0 0 320 360" data-background-color="#ffffff" preserveAspectRatio="xMidYMid meet" height="2250" width="2000" xmlns="http://www.w3.org/2000/svg" xmlns:xlink="http://www.w3.org/1999/xlink"><g id="tight-bounds" transform="matrix(1,0,0,1,0,0)"><svg viewBox="0 0 320 360" height="360" width="320"><g><svg></svg></g><g><svg viewBox="0 0 320 360" height="360" width="320"><g><path xmlns="http://www.w3.org/2000/svg" d="M20.961 227.22l3.726 4.658-1.863-6.056c-0.466-2.795-3.726 0.466-1.863 1.398M25.153 224.425c1.397 2.329 2.795 4.658 2.795 6.987 0 3.261 2.795 4.658 5.123 5.589-3.261-3.726-5.124-13.974-7.918-12.576M204.017 26.929c7.918 0 15.371-0.932 23.756 0.931 20.495 5.124 37.729 15.371 49.374 29.811l32.606 52.169c1.397 13.042 4.192 27.482 3.726 43.319 3.261 0 2.795-4.658 6.521-5.59-3.726 9.316-5.59 20.961-6.521 34.469-2.329-7.453 0-18.632 0.466-24.687-3.261 5.124-5.124 1.397-5.124-0.932 0.466-3.726-1.397-3.261-2.795-4.658-5.124-4.658-8.384-9.782-12.11-17.7 2.329-6.055 2.795-14.905-4.658-19.563-2.329-1.397-5.124-3.726-6.521-7.453-1.863-5.124-5.124-11.179-4.193-19.097 0.466-2.329-6.987 5.124-11.179 1.863-18.166-12.576-36.332-27.016-58.224-39.127-11.645 0-20.029-4.192-24.221-9.316-3.726-4.658-0.932-10.713 4.658-11.179 3.261 0 6.987-0.932 9.782 0.932 0.466-1.863 2.329-4.192 4.657-4.192M157.904 16.215l0.932 0.466c4.658 0.932 6.987 7.453 12.11 5.124 0 3.261 0.466 6.521-0.466 8.85-1.397 3.726-5.59 3.726-8.85 3.726-31.208-1.863-49.374 11.179-68.471 22.358-5.124 3.261-10.713 5.59-14.906 9.782-20.029 18.632-41.921 35.866-47.045 70.335l-4.192 38.195c-0.466 4.192-5.124 8.384-4.192 13.508l3.26 22.824c-3.261-3.261-5.124 0.932-4.192 2.795 0.466 1.397 2.329 6.055 5.124 1.863 3.726 6.987 7.453 20.495 12.576 26.55 15.837 18.632 36.332 35.4 53.101 52.169 4.192-0.932 7.453-0.932 8.384-3.727 1.397 2.795-1.397 5.59-3.726 6.056 7.453 4.658 15.837 8.85 27.016 9.781 14.44 0.932 27.948 3.261 40.524 6.522 6.521-1.863 13.042-2.795 20.029-3.261 2.329 0 3.726-3.726 6.521-4.658l0.466-4.658c2.795 4.192 2.329-1.397 0.466-4.192 3.261 2.795 4.192 5.124 5.589 6.987 0-1.397 3.726-6.521 3.727-0.466l0.931-6.055c1.397-0.932 1.863 5.124 3.261 0.931 1.397-4.192 4.192-0.932 6.987-2.329-0.932 1.863-0.466 5.59 2.794 3.261l3.727-3.261c2.329 5.59 6.055 3.261 7.918 2.329 20.495-13.042 40.99-28.413 60.553-43.784l-0.466 6.055 2.329-7.453c2.329 2.329 4.192 0.466 5.124-0.931 2.795-4.658 6.521-9.316 12.577-13.508-7.453 20.029-16.303 35.866-27.482 48.908l-4.658 5.59c0 3.261-0.932 7.453-4.658 7.918-1.863 0.466-5.59-0.932-8.384 1.863-1.397 1.863 3.261 5.59-0.466 2.795-3.261-2.329-6.521 0-10.248 0.932-2.795 0.932 1.863 3.726 2.795 5.589 0.932 1.863 1.863 3.726 1.398 6.056l-5.124-5.59c-6.055 3.261-9.782 9.316-14.906 13.974-2.329 1.863-1.397 5.124-1.397 7.918-3.261 0-6.987-0.932-8.85 0.932-1.397 1.863-0.932 4.658-0.932 7.453-4.658-0.466-5.124-7.453-9.315-6.056-4.192 0.932-8.85 1.397-12.577 3.727 2.795 5.59-4.658 2.329-3.726 3.26-6.987-4.192-13.042-7.453-20.495-4.658-15.837-5.124-35.4-2.795-49.84-0.931 0-2.329 0.466-4.658-0.466-5.124-0.932 2.329-3.726 1.397-3.26 1.397-8.85-6.055-17.7-9.782-27.016-14.905-8.384 0.932-16.303-3.261-18.632-5.59-6.521-6.055-13.974-2.795-20.029-4.192-13.042-3.261-17.7-16.769-19.098-26.084-0.932-4.658-4.658-6.521-6.055-6.056-6.055-19.563-15.371-37.263-22.824-55.429-1.863-4.658-1.397-9.316-1.397-14.44 2.329 0.932 4.658 0.466 4.192-2.794-2.329-15.371-7.918-27.016-13.974-38.195 3.261-15.837 3.726-34.469 11.179-48.443 6.521-12.576 18.632-19.098 27.016-29.811 2.795-3.726 2.795-8.85 5.59-12.11 9.316-9.316 18.632-19.098 28.879-27.482 4.658-3.726 10.247 0 17.234-1.397 2.329-8.384 11.645-15.837 20.495-13.508 3.726 0.932 11.179-8.85 13.508-9.782 3.726-1.397 1.863 3.726 1.863 6.987 8.85-6.987 20.961-10.713 32.14-14.906" fill="#ca3433" fill-rule="nonzero" stroke="none" stroke-width="1" stroke-linecap="butt" stroke-linejoin="miter" stroke-miterlimit="10" stroke-dasharray="" stroke-dashoffset="0" font-family="none" font-weight="none" font-size="none" text-anchor="none" style="mix-blend-mode: normal" data-fill-palette-color="tertiary"></path></g><g transform="matrix(1,0,0,1,64,144.25318977847672)"><svg viewBox="0 0 192 71.49362044304654" height="71.49362044304654" width="192"><g><svg viewBox="0 0 192 71.49362044304654" height="71.49362044304654" width="192"><g><svg viewBox="0 0 192 71.49362044304654" height="71.49362044304654" width="192"><g><svg viewBox="0 0 192 71.49362044304654" height="71.49362044304654" width="192"><g id="textblocktransform"><svg viewBox="0 0 192 71.49362044304654" height="71.49362044304654" width="192" id="textblock"><g><svg viewBox="0 0 192 71.49362044304654" height="71.49362044304654" width="192"><g transform="matrix(1,0,0,1,0,0)"><svg width="192" viewBox="2.25 -36.45000076293945 98.96113586425781 36.85000228881836" height="71.49362044304654" data-palette-color="#ca3433"><path d="M20 0.4L20 0.4Q17.25 0.4 14.6-0.3 11.95-1 10-2.25L10-2.25Q7.8-3.65 6.03-6.2 4.25-8.75 3.25-11.78 2.25-14.8 2.25-17.6L2.25-17.6Q2.25-21.35 3.85-24.9 5.45-28.45 8.35-31.35L8.35-31.35Q10.55-33.55 13.3-34.75L13.3-34.75Q16.55-36.1 19.85-36.1L19.85-36.1Q22.7-36.1 25.55-35L25.55-35Q27.4-34.3 28.7-33.23 30-32.15 31.55-30.4L31.55-30.4 33.05-28.55Q33.65-27.8 33.65-27L33.65-27Q33.65-26 32.85-25.25 32.05-24.5 31-24.5L31-24.5Q29.95-24.5 29.15-25.45L29.15-25.45 27.3-27.7Q26.6-28.45 25.65-29.18 24.7-29.9 23.75-30.3L23.75-30.3Q21.6-31.2 19.45-31.05L19.45-31.05Q14.9-30.65 11.8-27.7L11.8-27.7Q7.25-23.3 7.25-17.6L7.25-17.6Q7.25-14.55 8.88-11.23 10.5-7.9 12.7-6.45L12.7-6.45Q14.05-5.6 15.95-5.1 17.85-4.6 19.85-4.6L19.85-4.6Q25.9-4.6 27.75-7.95L27.75-7.95Q28.1-8.55 28.6-10.25L28.6-10.25 29.1-11.85Q29.4-12.65 30.03-13.1 30.65-13.55 31.35-13.55L31.35-13.55Q32.35-13.55 33.15-12.85 33.95-12.15 33.95-11.05L33.95-11.05Q33.95-10.6 33.8-10.15L33.8-10.15 33.45-9.1Q32.6-6.5 32.15-5.55L32.15-5.55Q30.6-2.85 27.8-1.4 25 0.05 21.4 0.35L21.4 0.35Q20.95 0.4 20 0.4L20 0.4ZM40.45-2.35L40.45-2.35Q40.45-2.85 40.1-17.1L40.1-17.1Q39.9-26.95 40.4-33.1L40.4-33.1Q40.5-34.15 41.27-34.8 42.05-35.45 43.1-35.4L43.1-35.4Q43.6-35.35 44.05-35.1L44.05-35.1Q49.9-36.3 54.6-35.65L54.6-35.65Q62.85-34.5 65.3-28.15L65.3-28.15Q66.25-25.1 66.02-23.18 65.8-21.25 64.87-19.73 63.95-18.2 62.52-17.25 61.1-16.3 59.65-15.73 58.2-15.15 56.55-14.85L56.55-14.85Q51.45-13.8 45.2-14.5L45.2-14.5Q45.45-4.9 45.45-2.35L45.45-2.35Q45.45-1.3 44.72-0.58 44 0.15 42.95 0.15 41.9 0.15 41.17-0.58 40.45-1.3 40.45-2.35L40.45-2.35ZM45.1-19.45L45.1-19.45Q45.4-19.5 45.75-19.5L45.75-19.5Q51.2-18.85 55.55-19.75L55.55-19.75Q60.7-20.8 61.05-23.75L61.05-23.75Q61.15-24.45 60.6-26.35L60.6-26.35Q59.25-29.95 53.95-30.7L53.95-30.7Q50.15-31.2 45.25-30.25L45.25-30.25Q45-25.85 45.1-19.45L45.1-19.45ZM74.65 0.1L74.65 0.1Q73.9 0.15 73.25-0.25L73.25-0.25Q72.45-0.5 71.97-1.18 71.5-1.85 71.5-2.7L71.5-2.7Q71.5-4.3 71.75-18.35L71.75-18.35Q71.8-20.65 71.59-25.7L71.59-25.7Q71.4-30.65 71.55-33.4L71.55-33.4Q71.59-34.45 72.37-35.15 73.15-35.85 74.15-35.8L74.15-35.8 74.34-35.8Q74.8-36.05 75.3-36.1L75.3-36.1Q77.59-36.3 78.95-36.38 80.3-36.45 82.75-36.45 85.2-36.45 86.95-36.13 88.7-35.8 90.82-35.05 92.95-34.3 94.59-33.1L94.59-33.1Q98.09-30.55 99.72-26.58 101.34-22.6 101.2-18.2L101.2-18.2Q101.05-13.95 99.3-10L99.3-10Q97.5-6.1 94.34-3.6L94.34-3.6Q90.59-0.6 84.2-0.1L84.2-0.1Q82.3 0.05 79.2 0.05L79.2 0.05Q75.84 0.05 74.65 0.1L74.65 0.1ZM76.55-4.95L79.2-4.95Q82.15-4.95 83.8-5.1L83.8-5.1Q88.34-5.45 90.95-7.5L90.95-7.5Q93.15-9.25 94.47-12.18 95.8-15.1 95.9-18.4L95.9-18.4Q96.05-21.7 94.9-24.5L94.9-24.5Q93.7-27.35 91.4-29L91.4-29Q89.55-30.35 87-30.95L87-30.95Q84.4-31.55 81.95-31.48 79.5-31.4 76.5-31.15L76.5-31.15Q76.45-29.7 76.59-25.9L76.59-25.9Q76.8-20.45 76.75-18.25L76.75-18.25Q76.75-16.75 76.7-14.08 76.65-11.4 76.59-9.15 76.55-6.9 76.55-4.95L76.55-4.95Z" opacity="1" transform="matrix(1,0,0,1,0,0)" fill="#ca3433" class="wordmark-text-0" data-fill-palette-color="primary" id="text-0"></path></svg></g></svg></g></svg></g></svg></g><g></g></svg></g></svg></g></svg></g></svg></g><defs></defs></svg><rect width="320" height="360" fill="none" stroke="none" visibility="hidden"></rect></g></svg></g></svg>